<svg width="78" height="75" fill="none" xmlns="http://www.w3.org/2000/svg"><path opacity=".3" d="M39.003 65.653c15.906 0 28.8-12.457 28.8-27.823 0-15.367-12.894-27.824-28.8-27.824s-28.8 12.457-28.8 27.824c0 15.366 12.894 27.823 28.8 27.823z" fill="#fff"/><path fill-rule="evenodd" clip-rule="evenodd" d="M38.158 65.641C22.643 65.21 10.203 52.923 10.203 37.83c0-.257.004-.514.01-.769 2.11.195 5.93.637 6.11 2.069.25 1.98 0 4.455 1.746 5.197 1.745.743 2.244-2.97 3.74-1.98 1.495.99 5.485 1.944 5.485 3.694s-.748 4.475 0 4.97c.748.495 3.738 3.96 3.739 4.455 0 .495 1.054 3.013.74 3.975-.26.798-1.574 3.276-2.848 4.402a28.833 28.833 0 009.233 1.798zm-11.05-53.158a29.548 29.548 0 0111.895-2.477c11.237 0 20.97 6.217 25.717 15.285.106 2.411.087 4.474.639 5.22 2.806 3.795-6.837 6.405-5.372 12.143.645 2.532-6.415 1.729-8.14 4.1-1.724 2.368-5.94.776-6.918.32-.977-.455-4.72 1.063-4.393-1.517.325-2.581 2.602-2.733 5.045-3.795 2.441-1.061 5.963-4.59 4.232-5.051-8.147-2.17-10.926-9.768-10.926-9.768-.489-.091-.366-5.371-2.481-5.523-2.117-.152-3.257.607-6.349 0-3.093-.607-2.441-2.58-2.93-6.83-.11-.954-.104-1.625-.02-2.107zM67.8 37.45c.002.126.003.253.003.38 0 15.274-12.74 27.673-28.513 27.822 15.618-.152 28.3-12.71 28.51-28.202z" fill="#fff"/></svg>