<svg width="76" height="73" fill="none" xmlns="http://www.w3.org/2000/svg"><path opacity=".3" d="M56.445 42.445c-5.19 0-9.398-4.065-9.398-9.08 0-5.013 4.208-9.078 9.398-9.078 5.19 0 9.398 4.065 9.398 9.079s-4.208 9.08-9.398 9.08zm-28.194-9.08c-6.92 0-12.53-5.419-12.53-12.105 0-6.686 5.61-12.105 12.53-12.105 6.92 0 12.53 5.42 12.53 12.105 0 6.686-5.61 12.106-12.53 12.106z" fill="#fff"/><path d="M55.195 45.473c10.671.113 19.384 5.325 20.04 16.341.026.444 0 1.816-1.7 1.816H61.456c0-6.812-2.33-13.099-6.261-18.157zM.059 61.206C1.273 46.762 13.408 39.42 28.199 39.42c14.998 0 27.32 6.94 28.238 21.79.037.591 0 2.421-2.353 2.421H2.336c-.786 0-2.343-1.637-2.277-2.424z" fill="#fff"/></svg>