<svg width="32" height="24" fill="none" xmlns="http://www.w3.org/2000/svg"><path d="M12.966 1.838c-.25-.703-.5-1.411-.505-1.42a.685.685 0 00-.69-.415c-.186.015-4.566.398-7.373 2.688C2.93 4.067 0 12.107 0 19.06a.7.7 0 00.091.349c2.024 3.606 7.542 4.55 8.8 4.59a.696.696 0 00.584-.289l1.36-1.868c-2.248-.347-2.653-.8-2.748-.87-.508-.379-.882-.91-.428-1.58.35-.521 1.084-.693 1.646-.4.576.273 2.118 1.15 6.695 1.127 4.545-.014 6.54-.98 6.57-1.001.763-.35 1.358-.205 1.73.312.442.704.126 1.18-.379 1.558-.095.071-.324.27-2.738.85l1.343 1.872a.69.69 0 00.562.29l.022-.001c1.258-.04 6.776-.985 8.799-4.591a.705.705 0 00.091-.35c0-6.95-2.93-14.99-4.434-16.396C24.796.402 20.415.02 20.23.003a.693.693 0 00-.69.414c-.005.01-.25.73-.486 1.424 0 0-1.864-.277-3.054-.277-1.19 0-3.034.274-3.034.274zm-1.537 14.8c-1.263 0-2.286-1.545-2.286-3.454 0-1.908 1.023-3.454 2.286-3.454 1.267-.191 2.258 1.546 2.285 3.454 0 1.91-1.023 3.455-2.285 3.455zm9.142 0c-1.262 0-2.285-1.555-2.285-3.474 0-1.92 1.023-3.476 2.285-3.476 1.263 0 2.286 1.556 2.286 3.476 0 1.919-1.023 3.475-2.286 3.475z" fill="#fff"/></svg>