<svg width="64" height="69" fill="none" xmlns="http://www.w3.org/2000/svg"><path d="M44.501 4.583h-25c-1.99 0-3.898.796-5.304 2.213A7.586 7.586 0 0012 12.14v20.152a20.244 20.244 0 004.657 12.919 19.97 19.97 0 0011.794 6.906A1.259 1.259 0 0129.5 53.35v5.391c0 .334-.131.655-.366.891a1.245 1.245 0 01-.883.369H24.5a2.49 2.49 0 00-1.768.738 2.529 2.529 0 000 3.562 2.49 2.49 0 001.767.738H39.5a2.49 2.49 0 001.768-.738 2.529 2.529 0 000-3.562A2.49 2.49 0 0039.5 60h-3.75c-.332 0-.65-.133-.884-.369a1.264 1.264 0 01-.366-.89v-5.416a1.253 1.253 0 011.05-1.235 19.97 19.97 0 0011.786-6.896A20.244 20.244 0 0052 32.292V12.14a7.59 7.59 0 00-2.196-5.344A7.472 7.472 0 0044.5 4.583z" fill="#fff"/><rect opacity=".5" y="12.14" width="8" height="18.892" rx="4" fill="#fff"/><rect opacity=".5" x="56" y="12.14" width="8" height="18.892" rx="4" fill="#fff"/></svg>