<svg width="71" height="71" fill="none" xmlns="http://www.w3.org/2000/svg"><path d="M46.538 0c-.57 0-1.056.405-1.16.966l-.522 2.783c-.135.722-.707 1.26-1.429 1.41a19.15 19.15 0 00-1.978.522c-.698.227-1.459.048-1.937-.509l-1.835-2.144a1.183 1.183 0 00-1.493-.25l-1.368.79a1.187 1.187 0 00-.527 1.42l.938 2.667c.244.69.02 1.442-.527 1.932-.509.457-.99.938-1.447 1.447-.49.546-1.24.775-1.932.531l-2.671-.943a1.178 1.178 0 00-1.415.527l-.795 1.373a1.19 1.19 0 00.254 1.493l.232.199a5.91 5.91 0 015.713 4.812l.143.753.495-.582a5.888 5.888 0 014.178-2.034c2.12-3.207 5.748-5.33 9.878-5.33 6.535 0 11.834 5.3 11.834 11.834 0 4.13-2.123 7.757-5.33 9.873-.083 1.572-.77 3.095-2.034 4.179l-.582.494.753.144a5.91 5.91 0 014.812 5.713l.199.231c.371.433.998.54 1.493.254l1.373-.795a1.18 1.18 0 00.527-1.414l-.943-2.672c-.244-.691-.015-1.442.531-1.932.51-.457.99-.938 1.447-1.447.49-.547 1.241-.77 1.932-.527l2.667.938a1.184 1.184 0 001.42-.527l.79-1.372a1.183 1.183 0 00-.25-1.489l-2.144-1.84c-.557-.478-.736-1.238-.509-1.936.208-.644.383-1.302.522-1.974.15-.72.688-1.291 1.41-1.428l2.783-.527c.56-.097.966-.58.966-1.151v-1.59c0-.57-.405-1.056-.966-1.16l-2.783-.523c-.722-.135-1.26-.706-1.41-1.428a18.98 18.98 0 00-.522-1.979c-.227-.698-.048-1.458.508-1.936l2.145-1.835c.433-.372.536-.999.25-1.494l-.79-1.368a1.187 1.187 0 00-1.42-.527l-2.667.939c-.69.243-1.442.02-1.932-.527-.457-.51-.938-.99-1.447-1.447-.546-.49-.775-1.241-.531-1.932l.943-2.672a1.178 1.178 0 00-.527-1.415l-1.373-.795a1.19 1.19 0 00-1.493.255L55.15 5.172c-.478.557-1.239.736-1.937.509a18.97 18.97 0 00-1.978-.522c-.72-.15-1.291-.693-1.429-1.415L49.284.961A1.168 1.168 0 0048.128 0h-1.59zm-21.3 18.933c-.57 0-1.056.403-1.16.962l-.44 2.339c-.181.972-.956 1.69-1.927 1.886a20.9 20.9 0 00-2.37.624c-.938.307-1.967.077-2.608-.67l-1.54-1.799a1.19 1.19 0 00-1.492-.25l-1.368.791a1.184 1.184 0 00-.527 1.42l.795 2.25c.326.933.015 1.936-.721 2.593a21.626 21.626 0 00-1.73 1.73c-.657.735-1.66 1.047-2.592.72l-2.256-.79a1.18 1.18 0 00-1.415.527l-.795 1.368a1.184 1.184 0 00.255 1.493l1.798 1.54c.748.64.978 1.67.67 2.606a20.9 20.9 0 00-.624 2.372c-.196.97-.913 1.745-1.886 1.927l-2.339.44c-.56.103-.966.59-.966 1.16v1.59c0 .57.403 1.056.961 1.16l2.34.44c.972.181 1.689.956 1.885 1.927.164.809.371 1.6.624 2.37.308.938.078 1.967-.67 2.608l-1.798 1.54c-.43.37-.534 1-.25 1.492l.79 1.368c.285.495.883.717 1.42.527l2.251-.795c.932-.326 1.935-.015 2.593.721.544.609 1.12 1.187 1.729 1.73.736.657 1.048 1.66.721 2.592l-.79 2.256a1.18 1.18 0 00.527 1.415l1.368.795a1.184 1.184 0 001.493-.255l1.54-1.798c.64-.748 1.669-.978 2.606-.67.772.253 1.564.46 2.371.624.97.197 1.746.913 1.928 1.886l.44 2.339c.103.56.589.966 1.16.966h1.59a1.17 1.17 0 001.155-.962l.44-2.338c.181-.973.956-1.69 1.927-1.886.81-.164 1.6-.371 2.37-.624.938-.308 1.967-.078 2.608.67l1.54 1.798c.37.43.995.538 1.488.254l1.373-.795c.494-.284.716-.877.526-1.414l-.79-2.256c-.327-.933-.015-1.935.721-2.593a21.675 21.675 0 001.729-1.729c.658-.736 1.663-1.048 2.593-.721l2.256.79a1.18 1.18 0 001.414-.527l.795-1.368a1.185 1.185 0 00-.254-1.493l-1.798-1.54c-.748-.64-.978-1.669-.67-2.606a20.9 20.9 0 00.624-2.371c.196-.97.913-1.746 1.886-1.928l2.339-.44c.56-.103.966-.589.966-1.16v-1.59c0-.57-.406-1.053-.962-1.155l-2.339-.44c-.972-.181-1.69-.96-1.886-1.931a20.71 20.71 0 00-.624-2.372c-.307-.937-.077-1.96.67-2.602l1.799-1.54c.43-.37.538-1 .254-1.492l-.795-1.373a1.178 1.178 0 00-1.415-.527l-2.255.795c-.933.327-1.936.015-2.594-.721a21.66 21.66 0 00-1.728-1.729c-.736-.658-1.048-1.66-.721-2.593l.79-2.256a1.18 1.18 0 00-.527-1.414l-1.368-.795a1.184 1.184 0 00-1.493.254l-1.54 1.798c-.64.748-1.67.978-2.606.67a20.905 20.905 0 00-2.372-.624c-.97-.196-1.745-.913-1.927-1.886l-.44-2.339a1.178 1.178 0 00-1.16-.966h-1.59zM47.333 21.3a2.367 2.367 0 100 4.733 2.367 2.367 0 000-4.733zm-21.3 9.467c7.843 0 14.2 6.357 14.2 14.2 0 7.843-6.356 14.2-14.2 14.2-7.843 0-14.2-6.357-14.2-14.2 0-7.843 6.357-14.2 14.2-14.2zm0 9.466a4.732 4.732 0 00-4.733 4.734 4.732 4.732 0 004.733 4.733 4.732 4.732 0 004.734-4.733 4.732 4.732 0 00-4.734-4.734z" fill="#fff"/></svg>